Coordinates
version=1
nRows=17
nColumns=40
inDegrees=yes

Units are S.I. units (second, meters, Newtons, ...)
Angles are in degrees.

endheader
time	pelvis_tilt	pelvis_list	pelvis_rotation	pelvis_tx	pelvis_ty	pelvis_tz	hip_flexion_r	hip_adduction_r	hip_rotation_r	knee_angle_r	knee_angle_r_beta	ankle_angle_r	subtalar_angle_r	mtp_angle_r	hip_flexion_l	hip_adduction_l	hip_rotation_l	knee_angle_l	knee_angle_l_beta	ankle_angle_l	subtalar_angle_l	mtp_angle_l	lumbar_extension	lumbar_bending	lumbar_rotation	arm_flex_r	arm_add_r	arm_rot_r	elbow_flex_r	pro_sup_r	wrist_flex_r	wrist_dev_r	arm_flex_l	arm_add_l	arm_rot_l	elbow_flex_l	pro_sup_l	wrist_flex_l	wrist_dev_l
      2.71000000	      4.61788267	     -0.51190628	      0.77695082	      0.70717180	      0.89633875	      1.44912712	     24.05333096	     -1.43961980	    -11.94273598	    -31.37604554	     -0.54761530	      0.60156044	     -4.25871991	      9.52310309	    -10.57897960	     -4.38127935	      7.58607532	    -12.42489346	     -0.21685530	     13.75850297	     -2.77113410	     -5.06247160	     -9.78509386	      3.51019765	     -2.88492711	      3.24082193	    -10.75474084	     14.05522292	     14.58056023	     89.95437384	      0.00000000	      0.00000000	     15.38588144	     11.05815731	    -13.99456816	     33.74725762	     89.95437384	      0.00000000	      0.00000000
      2.72000000	      4.22690596	     -0.31454068	      0.87869484	      0.71543369	      0.89453934	      1.44924922	     24.55824493	     -1.62404494	    -13.00743499	    -28.97269520	     -0.50566892	      0.18479029	     -3.37388278	      9.29149424	    -10.60365544	     -4.53987750	      7.56472272	    -12.70703167	     -0.22177954	     14.00086961	     -2.80699701	     -5.15973412	     -9.45326623	      3.32560135	     -2.87995153	      2.94405306	    -10.76178565	     13.89762585	     14.43843753	     89.95437384	      0.00000000	      0.00000000	     15.82726473	     11.08457802	    -13.93541033	     34.58479440	     89.95437384	      0.00000000	      0.00000000
      2.73000000	      4.34163543	     -0.45563728	      1.25921662	      0.72418210	      0.89362356	      1.44898147	     24.27315220	     -1.78979490	    -15.34539611	    -26.58615565	     -0.46401595	     -0.16428286	     -1.06727788	      7.71155665	    -11.23069891	     -4.23993552	      7.70492019	    -12.95780895	     -0.22615643	     14.21947637	     -3.29826060	     -5.65520447	     -9.66131168	      3.59925992	     -3.09533493	      2.80448015	    -10.72009321	     13.10228909	     14.13035687	     89.95437384	      0.00000000	      0.00000000	     16.27563617	     11.04660307	    -13.96748407	     35.35989234	     89.95437384	      0.00000000	      0.00000000
      2.74000000	      3.95573694	     -0.17684482	      1.20040874	      0.73271299	      0.89183969	      1.44930083	     24.79104082	     -1.99715439	    -16.32469977	    -24.79094703	     -0.43268365	     -0.18364103	     -0.77026974	      7.62454514	    -11.35013399	     -4.53290283	      7.85221892	    -13.11282346	     -0.22886194	     14.43321668	     -3.29050815	     -5.70581569	     -9.31642215	      3.30684754	     -2.90564960	      2.54062646	    -10.72662871	     13.06072375	     13.92339629	     89.95437384	      0.00000000	      0.00000000	     16.64805255	     11.02328087	    -14.00349180	     36.02899054	     89.95437384	      0.00000000	      0.00000000
      2.75000000	      4.21658035	     -0.55919621	      1.79671717	      0.74133865	      0.89134839	      1.44902364	     24.09222082	     -1.88611218	    -18.83163807	    -22.48963345	     -0.39251815	     -0.91035302	      1.73503911	      5.70484143	    -11.97895826	     -3.83742008	      7.96375644	    -13.62047266	     -0.23772209	     14.36666337	     -4.29791438	     -6.30276030	     -9.75149409	      3.86148895	     -3.26443614	      2.45829203	    -10.71609138	     12.44692510	     13.70562189	     89.95437384	      0.00000000	      0.00000000	     17.01741083	     11.01900215	    -14.07370408	     36.93153086	     89.95437384	      0.00000000	      0.00000000
      2.76000000	      4.00081999	     -0.62110463	      2.02321348	      0.74995857	      0.89010140	      1.44924825	     24.12426312	     -1.76499269	    -19.94131660	    -20.77488704	     -0.36259018	     -1.31661709	      2.14878860	      5.38828642	    -12.12581451	     -3.62895156	      8.01099063	    -14.08565444	     -0.24584105	     14.64350874	     -4.26422551	     -6.45888738	     -9.62276114	      3.98409095	     -3.28355784	      2.31387991	    -10.70272767	     12.36658350	     13.43477203	     89.95437384	      0.00000000	      0.00000000	     17.32538630	     10.97725397	    -14.23276612	     37.58778071	     89.95437384	      0.00000000	      0.00000000
      2.77000000	      3.82707174	     -0.72953738	      2.35227174	      0.75852984	      0.88901608	      1.44919542	     24.06035600	     -1.67993816	    -21.19734831	    -19.32924717	     -0.33735900	     -1.77539111	      2.58581270	      5.07265430	    -12.27696106	     -3.35654143	      7.80818527	    -14.62044412	     -0.25517489	     14.72231202	     -4.42127690	     -6.61090833	     -9.56954409	      4.19758444	     -3.40402791	      2.21169111	    -10.72040648	     12.22692265	     13.21886272	     89.95437384	      0.00000000	      0.00000000	     17.61956746	     10.91038211	    -14.29466134	     38.17318007	     89.95437384	      0.00000000	      0.00000000
      2.78000000	      3.54108761	     -0.54576849	      2.36743064	      0.76728088	      0.88776041	      1.44921401	     24.42175611	     -1.85219581	    -21.60705403	    -18.86922379	     -0.32933008	     -1.70071793	      2.49807986	      5.00020491	    -12.43576175	     -3.52729316	      7.83204205	    -14.90125101	     -0.26007589	     14.67059471	     -4.38094546	     -6.58158714	     -9.39865598	      4.07607042	     -3.12500609	      1.97384182	    -10.80275503	     12.21680948	     13.08181843	     89.95437384	      0.00000000	      0.00000000	     17.88602351	     10.66716893	    -14.23469320	     38.64622661	     89.95437384	      0.00000000	      0.00000000
      2.79000000	      3.46578852	     -0.86720551	      2.97714459	      0.77654352	      0.88717696	      1.44888732	     23.84219295	     -1.57492074	    -22.89152284	    -17.46214129	     -0.30477186	     -2.44251622	      3.02121543	      4.73920043	    -12.57160369	     -2.93126837	      7.43172011	    -15.71285300	     -0.27424102	     14.73440126	     -4.43172051	     -6.74296975	     -9.32485017	      4.58579354	     -3.63044187	      2.01866566	    -10.75157012	     12.08685481	     12.61641416	     89.95437384	      0.00000000	      0.00000000	     17.88630628	     10.63246518	    -14.23716519	     39.16019482	     89.95437384	      0.00000000	      0.00000000
      2.80000000	      3.18235826	     -0.74795456	      3.05980513	      0.78574088	      0.88617894	      1.44882859	     24.06892488	     -1.69456961	    -22.80262846	    -17.58569941	     -0.30692836	     -2.46190198	      2.90623734	      4.64010912	    -12.65088230	     -2.99665605	      7.31666625	    -16.19514677	     -0.28265863	     14.47068873	     -4.32527435	     -6.64827416	     -9.10986413	      4.55371907	     -3.45863569	      1.72358962	    -10.86539937	     12.04687227	     12.73748875	     89.95437384	      0.00000000	      0.00000000	     17.95351683	     10.40780183	    -14.15608163	     39.55416981	     89.95437384	      0.00000000	      0.00000000
      2.81000000	      3.18768981	     -1.17185975	      3.66931798	      0.79550939	      0.88589444	      1.44843930	     23.40064598	     -1.38237472	    -23.94043180	    -17.04586719	     -0.29750651	     -3.14450316	      3.11211198	      3.94514374	    -12.84285846	     -2.28100603	      6.88035853	    -17.09137541	     -0.29830077	     14.56264874	     -4.36859919	     -6.91347554	     -9.08357652	      5.19369008	     -3.85898052	      1.79525498	    -10.83063790	     11.92030977	     12.16694501	     89.95437384	      0.00000000	      0.00000000	     17.83840990	     10.18190913	    -13.88704050	     39.93081361	     89.95437384	      0.00000000	      0.00000000
      2.82000000	      2.88561747	     -1.06086121	      3.80653642	      0.80550508	      0.88511240	      1.44841668	     23.41177211	     -1.47219579	    -23.47918740	    -17.53936842	     -0.30611973	     -3.28943006	      2.99011860	      3.84697626	    -12.87047907	     -2.29396269	      6.69488742	    -17.68154903	     -0.30860125	     14.16531133	     -4.21995385	     -6.77520763	     -8.74401069	      5.15982366	     -3.76789173	      1.39735716	    -10.91995492	     11.87479734	     12.40903744	     89.95437384	      0.00000000	      0.00000000	     17.66230868	      9.98307305	    -13.81829054	     40.24339148	     89.95437384	      0.00000000	      0.00000000
      2.83000000	      2.81006333	     -1.23380786	      3.97891539	      0.81564846	      0.88477995	      1.44836838	     23.25909799	     -1.36154296	    -23.57112012	    -18.40238246	     -0.32118216	     -4.88551721	      2.50472605	      3.88148738	    -13.10636726	     -2.01092616	      6.19636513	    -18.39434619	     -0.32104190	     13.79437524	     -4.15395264	     -6.73354271	     -8.61035314	      5.48932118	     -3.67507939	      1.46090450	    -10.91895142	     12.00824319	     11.75054233	     89.95437384	      0.00000000	      0.00000000	     17.48050175	      9.72332233	    -13.76041844	     40.42846645	     89.95437384	      0.00000000	      0.00000000
      2.84000000	      2.65419631	     -1.63798573	      4.50454093	      0.82568987	      0.88484848	      1.44815514	     22.84697822	     -0.94787490	    -23.61692880	    -18.24211408	     -0.31838495	     -7.49675661	      1.47792851	      3.83279206	    -12.99124342	     -1.32522365	      5.71562624	    -19.43487242	     -0.33920251	     13.37958711	     -3.81055736	     -6.86074753	     -8.38662325	      6.08104315	     -4.12233027	      1.48854794	    -10.92448182	     12.16229641	     11.49205239	     89.95437384	      0.00000000	      0.00000000	     17.01887762	      9.49490273	    -13.19441275	     40.69204714	     89.95437384	      0.00000000	      0.00000000
      2.85000000	      2.45419803	     -1.89039205	      4.51113648	      0.83559196	      0.88505589	      1.44830384	     22.88365084	     -0.64362708	    -23.00402971	    -18.77415823	     -0.32767088	     -7.58774456	      1.30525628	      3.67287394	    -12.94204211	     -1.01114479	      5.30073332	    -20.28352567	     -0.35401431	     12.65824945	     -3.56779596	     -6.71539281	     -8.22079070	      6.50203654	     -3.86331020	      1.39495677	    -11.01757968	     12.23791342	     11.41158374	     89.95437384	      0.00000000	      0.00000000	     16.73748594	      9.19352563	    -13.09954417	     40.74338963	     89.95437384	      0.00000000	      0.00000000
      2.86000000	      2.31297401	     -2.27696313	      4.51107405	      0.84590848	      0.88568966	      1.44863268	     22.70803954	     -0.19380788	    -22.84470691	    -19.14401056	     -0.33412602	     -7.45141323	      0.50840283	      3.51346006	    -12.84432101	     -0.48398209	      5.21362881	    -21.32504459	     -0.37219224	     11.78810299	     -3.09675484	     -6.56787695	     -8.01896430	      7.04205005	     -3.69458168	      1.47749255	    -11.07688275	     12.43632004	     11.03654514	     89.95437384	      0.00000000	      0.00000000	     16.36178822	      8.86628520	    -12.84800835	     40.52683676	     89.95437384	      0.00000000	      0.00000000
      2.87000000	      2.08062923	     -3.05948905	      4.43324365	      0.85611823	      0.88640098	      1.44966715	     22.30808893	      1.38709425	    -20.63461648	    -18.61449510	     -0.32488423	     -8.34004061	     -4.98851352	      2.84918902	    -12.28959707	      0.75284406	      6.30163534	    -22.94898317	     -0.40053532	     10.59483154	     -3.92113996	     -7.57004212	     -7.73424763	      7.95990531	     -3.54109103	      1.51248863	    -11.24865542	     13.66655339	     11.01938661	     89.95437384	      0.00000000	      0.00000000	     15.76440845	      8.53327960	    -12.18400481	     40.45717936	     89.95437384	      0.00000000	      0.00000000
